<?xml version="1.0" standalone="no"?>
<svg width="567" height="544" viewBox="0 0 567 544" xmlns="http://www.w3.org/2000/svg">
<title>
/Users/aw350/latex/DS/root/badplot.svg
</title>
<desc>
Creator: ROOT Version 5.34/07
CreationDate: Thu Sep  3 16:35:57 2015</desc>
<defs>
</defs>
<rect x="0" y="0" width="567" height="544" fill="#fefefe"/>
<rect x="91" y="76" width="385" height="381" fill="#fefefe"/>
<rect x="91" y="76" width="385" height="381" fill="none" stroke="black"/>
<rect x="91" y="76" width="385" height="381" fill="#fefefe"/>
<rect x="91" y="76" width="385" height="381" fill="none" stroke="black"/>
<path d="M92,456v -250h 18v -29h 19v 2h 20v 1h 19v 24h 19v 83h 19v 169h 39v -216h 19v -38h 19v 254h 20v -248h 19v 4h 19v -101h 20v -4h 19v 98h 19v -35h 19v -43h 20v 61h 19v -5h 19" fill="none" stroke="#00ff00" stroke-width="2"/>
<path d="M91,457h 385" fill="none" stroke="black" stroke-width="2"/>
<text x="179" y="489" fill="black" font-size="27" font-family="Helvetica">
Flower$class_ref
</text>
<path d="M91,446v 11" fill="none" stroke="black" stroke-width="2"/>
<path d="M110,451v 6" fill="none" stroke="black" stroke-width="2"/>
<path d="M129,451v 6" fill="none" stroke="black" stroke-width="2"/>
<path d="M149,451v 6" fill="none" stroke="black" stroke-width="2"/>
<path d="M168,451v 6" fill="none" stroke="black" stroke-width="2"/>
<path d="M187,446v 11" fill="none" stroke="black" stroke-width="2"/>
<path d="M206,451v 6" fill="none" stroke="black" stroke-width="2"/>
<path d="M226,451v 6" fill="none" stroke="black" stroke-width="2"/>
<path d="M245,451v 6" fill="none" stroke="black" stroke-width="2"/>
<path d="M264,451v 6" fill="none" stroke="black" stroke-width="2"/>
<path d="M283,446v 11" fill="none" stroke="black" stroke-width="2"/>
<path d="M303,451v 6" fill="none" stroke="black" stroke-width="2"/>
<path d="M322,451v 6" fill="none" stroke="black" stroke-width="2"/>
<path d="M341,451v 6" fill="none" stroke="black" stroke-width="2"/>
<path d="M361,451v 6" fill="none" stroke="black" stroke-width="2"/>
<path d="M380,446v 11" fill="none" stroke="black" stroke-width="2"/>
<path d="M399,451v 6" fill="none" stroke="black" stroke-width="2"/>
<path d="M418,451v 6" fill="none" stroke="black" stroke-width="2"/>
<path d="M438,451v 6" fill="none" stroke="black" stroke-width="2"/>
<path d="M457,451v 6" fill="none" stroke="black" stroke-width="2"/>
<path d="M476,446v 11" fill="none" stroke="black" stroke-width="2"/>
<text x="85" y="476" fill="black" font-size="20" font-family="Helvetica">
0
</text>
<text x="181" y="476" fill="black" font-size="20" font-family="Helvetica">
5
</text>
<text x="272" y="476" fill="black" font-size="20" font-family="Helvetica">
10
</text>
<text x="368" y="476" fill="black" font-size="20" font-family="Helvetica">
15
</text>
<text x="464" y="476" fill="black" font-size="20" font-family="Helvetica">
20
</text>
<path d="M91,76h 385" fill="none" stroke="black" stroke-width="2"/>
<path d="M91,87v -11" fill="none" stroke="black" stroke-width="2"/>
<path d="M110,82v -6" fill="none" stroke="black" stroke-width="2"/>
<path d="M129,82v -6" fill="none" stroke="black" stroke-width="2"/>
<path d="M149,82v -6" fill="none" stroke="black" stroke-width="2"/>
<path d="M168,82v -6" fill="none" stroke="black" stroke-width="2"/>
<path d="M187,87v -11" fill="none" stroke="black" stroke-width="2"/>
<path d="M206,82v -6" fill="none" stroke="black" stroke-width="2"/>
<path d="M226,82v -6" fill="none" stroke="black" stroke-width="2"/>
<path d="M245,82v -6" fill="none" stroke="black" stroke-width="2"/>
<path d="M264,82v -6" fill="none" stroke="black" stroke-width="2"/>
<path d="M283,87v -11" fill="none" stroke="black" stroke-width="2"/>
<path d="M303,82v -6" fill="none" stroke="black" stroke-width="2"/>
<path d="M322,82v -6" fill="none" stroke="black" stroke-width="2"/>
<path d="M341,82v -6" fill="none" stroke="black" stroke-width="2"/>
<path d="M361,82v -6" fill="none" stroke="black" stroke-width="2"/>
<path d="M380,87v -11" fill="none" stroke="black" stroke-width="2"/>
<path d="M399,82v -6" fill="none" stroke="black" stroke-width="2"/>
<path d="M418,82v -6" fill="none" stroke="black" stroke-width="2"/>
<path d="M438,82v -6" fill="none" stroke="black" stroke-width="2"/>
<path d="M457,82v -6" fill="none" stroke="black" stroke-width="2"/>
<path d="M476,87v -11" fill="none" stroke="black" stroke-width="2"/>
<path d="M91,457v -381" fill="none" stroke="black" stroke-width="2"/>
<g transform="rotate(-90,74,375)">
<text x="74" y="375" fill="black" font-size="27" font-family="Helvetica">
Flower$av_height
</text>
</g>
<path d="M103,457h -12" fill="none" stroke="black" stroke-width="2"/>
<text x="76" y="457" fill="black" font-size="13" font-family="Helvetica">
-1
</text>
<text x="54" y="466" fill="black" font-size="20" font-family="Helvetica">
10
</text>
<path d="M97,407h -6" fill="none" stroke="black" stroke-width="2"/>
<path d="M97,378h -6" fill="none" stroke="black" stroke-width="2"/>
<path d="M97,357h -6" fill="none" stroke="black" stroke-width="2"/>
<path d="M97,341h -6" fill="none" stroke="black" stroke-width="2"/>
<path d="M97,328h -6" fill="none" stroke="black" stroke-width="2"/>
<path d="M97,317h -6" fill="none" stroke="black" stroke-width="2"/>
<path d="M97,307h -6" fill="none" stroke="black" stroke-width="2"/>
<path d="M97,299h -6" fill="none" stroke="black" stroke-width="2"/>
<path d="M103,291h -12" fill="none" stroke="black" stroke-width="2"/>
<text x="86" y="301" text-anchor="end" fill="black" font-size="20" font-family="Helvetica">
1
</text>
<path d="M97,242h -6" fill="none" stroke="black" stroke-width="2"/>
<path d="M97,212h -6" fill="none" stroke="black" stroke-width="2"/>
<path d="M97,192h -6" fill="none" stroke="black" stroke-width="2"/>
<path d="M97,176h -6" fill="none" stroke="black" stroke-width="2"/>
<path d="M97,163h -6" fill="none" stroke="black" stroke-width="2"/>
<path d="M97,152h -6" fill="none" stroke="black" stroke-width="2"/>
<path d="M97,142h -6" fill="none" stroke="black" stroke-width="2"/>
<path d="M97,133h -6" fill="none" stroke="black" stroke-width="2"/>
<path d="M103,126h -12" fill="none" stroke="black" stroke-width="2"/>
<text x="86" y="136" text-anchor="end" fill="black" font-size="20" font-family="Helvetica">
10
</text>
<path d="M97,76h -6" fill="none" stroke="black" stroke-width="2"/>
<path d="M476,457v -381" fill="none" stroke="black" stroke-width="2"/>
<path d="M464,457h 12" fill="none" stroke="black" stroke-width="2"/>
<path d="M470,407h 6" fill="none" stroke="black" stroke-width="2"/>
<path d="M470,378h 6" fill="none" stroke="black" stroke-width="2"/>
<path d="M470,357h 6" fill="none" stroke="black" stroke-width="2"/>
<path d="M470,341h 6" fill="none" stroke="black" stroke-width="2"/>
<path d="M470,328h 6" fill="none" stroke="black" stroke-width="2"/>
<path d="M470,317h 6" fill="none" stroke="black" stroke-width="2"/>
<path d="M470,307h 6" fill="none" stroke="black" stroke-width="2"/>
<path d="M470,299h 6" fill="none" stroke="black" stroke-width="2"/>
<path d="M464,291h 12" fill="none" stroke="black" stroke-width="2"/>
<path d="M470,242h 6" fill="none" stroke="black" stroke-width="2"/>
<path d="M470,212h 6" fill="none" stroke="black" stroke-width="2"/>
<path d="M470,192h 6" fill="none" stroke="black" stroke-width="2"/>
<path d="M470,176h 6" fill="none" stroke="black" stroke-width="2"/>
<path d="M470,163h 6" fill="none" stroke="black" stroke-width="2"/>
<path d="M470,152h 6" fill="none" stroke="black" stroke-width="2"/>
<path d="M470,142h 6" fill="none" stroke="black" stroke-width="2"/>
<path d="M470,133h 6" fill="none" stroke="black" stroke-width="2"/>
<path d="M464,126h 12" fill="none" stroke="black" stroke-width="2"/>
<path d="M470,76h 6" fill="none" stroke="black" stroke-width="2"/>
<path d="M92,456v -165h 18v -41h 19v -33h 20v 21h 19v -46h 19v -34h 19v 5h 39v -28h 19v -6h 19v -17h 39v 2h 19v -6h 20v -5h 19v -6h 19v -11h 19v -4h 20v 2h 19v -3h 19" fill="none" stroke="#ffff00" stroke-width="2" stroke-dasharray=" 5, 5"/>
<text x="85" y="54" fill="black" font-size="25" font-family="Helvetica">
(av_height,class_ref) Don't do this!
</text>
<rect x="340" y="109" width="114" height="81" fill="#fefefe"/>
<text x="368" y="138" fill="black" font-size="24" font-family="Helvetica" font-weight="bold">
2014
</text>
<path d="M344,129h 20" fill="none" stroke="#ffff00" stroke-width="2" stroke-dasharray=" 5, 5"/>
<text x="368" y="179" fill="black" font-size="24" font-family="Helvetica" font-weight="bold">
2015
</text>
<path d="M344,170h 20" fill="none" stroke="#00ff00" stroke-width="2"/></svg>
